<?xml version="1.0" encoding="UTF-8"?>
<svg width="106px" height="119px" viewBox="0 0 106 119" version="1.1" xmlns="http://www.w3.org/2000/svg" xmlns:xlink="http://www.w3.org/1999/xlink">
    <!-- Generator: Sketch 47 (45396) - http://www.bohemiancoding.com/sketch -->
    <title>skyscraper</title>
    <desc>Created with Sketch.</desc>
    <defs></defs>
    <g id="Page-1" stroke="none" stroke-width="1" fill="none" fill-rule="evenodd">
        <g id="Nav-Light-Copy-13" transform="translate(-531.000000, -892.000000)" fill-rule="nonzero" fill="#0C74D6">
            <g id="Group-3" transform="translate(391.000000, 825.000000)">
                <g id="Group-2" transform="translate(140.000000, 67.000000)">
                    <g id="Group">
                        <g id="skyscraper">
                            <path d="M37.9232329,40 C38.9846844,40 39.8462405,39.1039844 39.8462405,38.0000781 L39.8462405,32.0000781 L57.1539848,32.0000781 L57.1539848,38.0000781 C57.1539848,39.1039844 58.0135127,40 59.0769924,40 C60.1404722,40 61,39.1039844 61,38.0000781 L61,29.9999219 C61,28.8960156 60.1404722,28 59.0769924,28 L37.9230076,28 C36.8615561,28 36,28.8960156 36,29.9999219 L36,37.9998438 C36.0002254,39.1039844 36.8617814,40 37.9232329,40 Z" id="Shape"></path>
                            <path d="M36,52.9999609 L36,61.0000391 C36,62.1039669 36.8960506,63 38,63 C39.1039494,63 40,62.1039669 40,61.0000391 L40,52.9999609 C40,51.8960331 39.1039494,51 38,51 C36.8960506,51 36,51.8960331 36,52.9999609 Z" id="Shape"></path>
                            <path d="M49,24 C50.1039494,24 51,23.1039844 51,22.0000781 L51,1.99992187 C51,0.896015625 50.1039494,0 49,0 C47.8960506,0 47,0.896015625 47,1.99992187 L47,21.9998438 C47,23.1039844 47.8960506,24 49,24 Z" id="Shape"></path>
                            <path d="M59,52.9999609 L59,61.0000391 C59,62.1039669 59.8939412,63 61,63 C62.1060588,63 63,62.1039669 63,61.0000391 L63,52.9999609 C63,51.8960331 62.1060588,51 61,51 C59.8939412,51 59,51.8960331 59,52.9999609 Z" id="Shape"></path>
                            <path d="M47,52.9999609 L47,61.0000391 C47,62.1039669 47.8960506,63 49,63 C50.1039494,63 51,62.1039669 51,61.0000391 L51,52.9999609 C51,51.8960331 50.1039494,51 49,51 C47.8960506,51 47,51.8960331 47,52.9999609 Z" id="Shape"></path>
                            <path d="M74.2374294,11.4200504 C74.7902813,10.8479522 75.9549888,10 76.6997692,10 C78.2311891,10 78.5769721,11.0999004 78.5996829,11.9998828 C78.597679,12.0019921 78.597679,12.0038671 78.5996829,12.0099607 C78.597679,12.0120701 78.597679,12.0160544 78.5996829,12.0179293 L78.5996829,12.0219136 L78.5996829,12.0258979 L78.5996829,12.0280073 C78.5996829,12.0280073 78.5996829,12.0280073 78.5996829,12.0301166 C78.6148234,13.1201734 79.4584626,14 80.4995966,14 C81.5427345,14 82.3901588,13.1159548 82.3995103,12.0200387 C82.4222211,11.0980254 82.7720118,10 84.299424,10 C85.0442044,10 86.2089118,10.8479522 86.7561974,11.4139568 C87.4989739,12.1960509 88.6999741,12.1960509 89.4427506,11.4139568 C90.1857498,10.632097 90.1857498,9.36790297 89.4427506,8.58604324 C89.1920413,8.32214215 86.9120558,6 84.299424,6 C82.6350791,6 81.3924424,6.56787953 80.4993739,7.40598816 C79.6063054,6.56787953 78.3638914,6 76.6993239,6 C74.0869147,6 71.8069292,8.32190778 71.5559972,8.58604324 C70.8150019,9.36391867 70.8150019,10.6238941 71.5539933,11.4059882 C72.2880863,12.1862073 73.4906451,12.1941759 74.2374294,11.4200504 Z" id="Shape"></path>
                            <path d="M85.0263888,84 C86.1178539,84 87,83.1039756 87,82.0000586 L87,69.9999414 C87,68.8960244 86.1178539,68 85.0263888,68 L13.9736112,68 C12.8842278,68 12,68.8960244 12,69.9999414 L12,82.0000586 C12,83.1039756 12.8842278,84 13.9736112,84 C15.0629946,84 15.9472223,83.1039756 15.9472223,82.0000586 L15.9472223,71.9998828 L83.0527777,71.9998828 L83.0527777,82.0000586 C83.0527777,83.1039756 83.9349238,84 85.0263888,84 Z" id="Shape"></path>
                            <path d="M71,76.9999414 L71,81.0000586 C71,82.1039756 71.8939412,83 73,83 C74.1060588,83 75,82.1039756 75,81.0000586 L75,76.9999414 C75,75.8960244 74.1060588,75 73,75 C71.8939412,75 71,75.8960244 71,76.9999414 Z" id="Shape"></path>
                            <path d="M73.0385323,63 C74.1232816,63 75,62.1487818 75,61.1000668 L75,45.8999332 C75,44.8512182 74.1232816,44 73.0385323,44 L25.9614677,44 C24.8787872,44 24,44.8512182 24,45.8999332 L24,61.1000668 C24,62.1487818 24.8787872,63 25.9614677,63 C27.0441483,63 27.9229355,62.1487818 27.9229355,61.1000668 L27.9229355,47.7998664 L71.0770645,47.7998664 L71.0770645,61.0998441 C71.0770645,62.1487818 71.9537829,63 73.0385323,63 Z" id="Shape"></path>
                            <path d="M96.0714931,87 L72.9285069,87 C71.8619858,87 71,87.8960178 71,88.9999268 L71,117.000073 C71,118.103982 71.8619858,119 72.9285069,119 C73.9950279,119 74.8570137,118.103982 74.8570137,117.000073 L74.8570137,90.9998535 L94.1429863,90.9998535 L94.1429863,116.999839 C94.1429863,118.103748 95.0049721,118.999766 96.0714931,118.999766 C97.1380141,118.999766 98,118.103748 98,116.999839 L98,88.9999268 C98.000226,87.8960178 97.1380141,87 96.0714931,87 Z" id="Shape"></path>
                            <path d="M61,75 C59.8939412,75 59,75.8960172 59,76.9999254 L59,117.000075 C59,118.103983 59.8939412,119 61,119 C62.1060588,119 63,118.103983 63,117.000075 L63,76.9999254 C63.0002343,75.8960172 62.1060588,75 61,75 Z" id="Shape"></path>
                            <path d="M49,75 C47.8960506,75 47,75.8960172 47,76.9999254 L47,117.000075 C47,118.103983 47.8960506,119 49,119 C50.1039493,119 51,118.103983 51,117.000075 L51,76.9999254 C51.0002343,75.8960172 50.1041837,75 49,75 Z" id="Shape"></path>
                            <path d="M84,95 C82.8939412,95 82,95.8960244 82,96.9999414 L82,117.000059 C82,118.103976 82.8939412,119 84,119 C85.1060588,119 86,118.103976 86,117.000059 L86,96.9999414 C86.0002343,95.8960244 85.1060588,95 84,95 Z" id="Shape"></path>
                            <path d="M13.9995898,40 L29.9998242,40 C31.1037412,40 31.9997656,39.1039625 31.9997656,38.0000293 C31.9997656,36.8960961 31.1037412,36.0000586 29.9998242,36.0000586 L13.9995898,36.0000586 C12.8975478,36.0000586 11.9996484,35.102146 11.9996484,34.0000879 C11.9996484,32.5141141 13.7837284,31.4879953 15.0835848,32.3261408 C15.6315589,32.6800557 16.3175812,32.7421666 16.9196965,32.4981762 C17.5236868,32.2541859 17.9697067,31.7301106 18.1157238,31.0961107 C18.5378373,29.274035 20.1358216,27.9999414 21.9998242,27.9999414 C23.8638268,27.9999414 25.4618112,29.274035 25.8839246,31.0961107 C26.0299417,31.7301106 26.4759617,32.2541859 27.079952,32.4981762 C27.6839422,32.7421666 28.3678552,32.68029 28.9160636,32.3261408 C29.2521607,32.1100417 29.6161486,32.0001172 30.0000586,32.0001172 C31.1039756,32.0001172 32,31.1040797 32,30.0001465 C32,28.8962133 31.1039756,28.0001758 30.0000586,28.0001758 C29.6541177,28.0001758 29.3100519,28.0301765 28.9720798,28.090178 C27.5920663,25.6041017 24.9661032,24 22.0000586,24 C19.034014,24 16.4080509,25.6041017 15.0280374,28.090178 C14.6900653,28.0301765 14.3459995,28.0001758 14.0000586,28.0001758 C10.6920575,28.0001758 8,30.6922728 8,34.0003223 C8,37.3083718 10.6915888,40 13.9995898,40 Z" id="Shape"></path>
                            <path d="M100.214253,47.6000445 L98.0909296,47.6000445 C97.196173,43.2699808 93.3002863,40 88.6427603,40 C84.3515896,40 80.5465572,42.8596189 79.3855658,46.9561126 C79.1001205,47.9669878 79.6979057,49.0139338 80.7260057,49.2969343 C81.7405454,49.5705831 82.8147506,48.9892186 83.1001959,47.9783434 C83.7965195,45.5177307 86.0778213,43.8001336 88.6429863,43.8001336 C91.8328311,43.8001336 94.4287329,46.3576032 94.4287329,49.5002227 C94.4287329,50.54895 95.2907187,51.4001781 96.3572397,51.4001781 L100.214253,51.4001781 C101.27874,51.4001781 102.14276,52.2531875 102.14276,53.3001336 C102.14276,54.3470796 101.27874,55.2000891 100.214253,55.2000891 L80.9285069,55.2000891 C79.8619858,55.2000891 79,56.0513172 79,57.1000445 C79,58.1487719 79.8619858,59 80.9285069,59 L100.214253,59 C103.404098,59 106,56.4425304 106,53.2999109 C106,50.1572915 103.404098,47.6000445 100.214253,47.6000445 Z" id="Shape"></path>
                            <path d="M38,75 C36.8960506,75 36,75.8960172 36,76.9999254 L36,117.000075 C36,118.103983 36.8960506,119 38,119 C39.1039493,119 40,118.103983 40,117.000075 L40,76.9999254 C40.0002343,75.8960172 39.1041837,75 38,75 Z" id="Shape"></path>
                            <path d="M14,95 C12.8960506,95 12,95.8960244 12,96.9999414 L12,117.000059 C12,118.103976 12.8960506,119 14,119 C15.1039493,119 16,118.103976 16,117.000059 L16,96.9999414 C16.0002343,95.8960244 15.1041837,95 14,95 Z" id="Shape"></path>
                            <path d="M25.0714931,87 L1.92850685,87 C0.864019887,87 0,87.8960178 0,88.9999268 L0,117.000073 C0,118.103982 0.864019887,119 1.92850685,119 C2.99299382,119 3.8570137,118.103982 3.8570137,117.000073 L3.8570137,90.9998535 L23.1429863,90.9998535 L23.1429863,116.999839 C23.1429863,118.103748 24.0070061,118.999766 25.0714931,118.999766 C26.1359801,118.999766 27,118.103748 27,116.999839 L27,88.9999268 C27.000226,87.8960178 26.1362061,87 25.0714931,87 Z" id="Shape"></path>
                            <path d="M26,75 C24.8960506,75 24,75.8960244 24,76.9999414 L24,81.0000586 C24,82.1039756 24.8960506,83 26,83 C27.1039493,83 28,82.1039756 28,81.0000586 L28,76.9999414 C28.0002343,75.8960244 27.1041837,75 26,75 Z" id="Shape"></path>
                        </g>
                    </g>
                </g>
            </g>
        </g>
    </g>
</svg>