<?xml version="1.0" encoding="UTF-8"?>
<svg width="119px" height="119px" viewBox="0 0 119 119" version="1.1" xmlns="http://www.w3.org/2000/svg" xmlns:xlink="http://www.w3.org/1999/xlink">
    <!-- Generator: Sketch 47 (45396) - http://www.bohemiancoding.com/sketch -->
    <title>ferris</title>
    <desc>Created with Sketch.</desc>
    <defs></defs>
    <g id="Page-1" stroke="none" stroke-width="1" fill="none" fill-rule="evenodd">
        <g id="Nav-Light-Copy-13" transform="translate(-901.000000, -892.000000)" fill-rule="nonzero" fill="#F15941">
            <g id="Group-3" transform="translate(391.000000, 825.000000)">
                <g id="Group-2" transform="translate(140.000000, 67.000000)">
                    <g id="Group-Copy" transform="translate(370.000000, 0.000000)">
                        <g id="ferris">
                            <path d="M17.9998359,115 L1.99992969,115 C0.893909742,115 0,115.895998 0,116.999883 C0,118.103768 0.893909742,119 1.99992969,119 L18.0000703,119 C19.1060903,119 20,118.104002 20,117.000117 C20,115.896232 19.1058559,115 17.9998359,115 Z" id="Shape"></path>
                            <path d="M107.071495,61.4822952 C111.444217,61.4822952 115,57.9242043 115,53.5491633 L115,49.5824811 C115,47.3949606 113.220018,45.615799 111.035631,45.615799 L106.381615,45.615799 C105.434134,39.931546 103.485747,34.552923 100.575942,29.5768484 C102.124106,28.1291152 103.107126,26.0822077 103.107126,23.7993957 L103.107126,19.832946 C103.107126,17.6454255 101.327144,15.8662638 99.1427576,15.8662638 L88.5204702,15.8662638 C82.8931897,11.5249234 76.3342234,8.49628131 69.4105733,7.02274964 L69.4105733,3.96644974 C69.4108055,1.77892924 67.6329138,0 65.4464369,0 L53.5535631,0 C51.3673185,0 49.5891945,1.77892924 49.5891945,3.96668216 L49.5891945,7.02298206 C42.6655443,8.49651373 36.106578,11.5251559 30.4792975,15.8664962 L19.8570101,15.8664962 C17.6707654,15.8664962 15.8926415,17.6454255 15.8926415,19.8331784 L15.8926415,23.7996281 C15.8926415,26.0824401 16.8758941,28.1291152 18.4238259,29.5770808 C15.5140207,34.5531554 13.5656335,39.9317784 12.6181524,45.6160314 L7.96436867,45.6160314 C5.77812399,45.6160314 4,47.3949606 4,49.5827136 L4,53.5491633 C4,57.9244367 7.5560157,61.4822952 11.9285051,61.4822952 L12.6281405,61.4822952 C13.6984992,67.8507875 16.0591881,73.9413076 19.5617788,79.3617658 C17.5142069,79.5165564 15.8928737,81.2122799 15.8928737,83.2986985 L15.8928737,87.2653806 C15.8928737,91.6406541 19.4488894,95.1985125 23.8213788,95.1985125 L27.7857475,95.1985125 C29.8351776,95.1985125 31.6885612,94.3952751 33.0978203,93.1139533 C35.196959,94.5182243 37.4129358,95.7516679 39.716251,96.8068468 L32.3921455,115.031458 L25.803447,115.031458 C24.707305,115.031458 23.8213788,115.919993 23.8213788,117.014683 C23.8213788,118.109373 24.707305,118.997908 25.803447,118.997908 L33.726145,118.997908 C33.7282355,118.997908 33.7300938,119 33.7321843,119 C33.7342749,119 33.7361331,118.997908 33.7382237,118.997908 L85.2622409,118.997908 C85.2643314,118.997908 85.2661897,119 85.2682802,119 C85.2703708,119 85.272229,118.997908 85.2743196,118.997908 L105.089891,118.997908 C106.186033,118.997908 107.07196,118.109373 107.07196,117.014683 C107.07196,115.919993 106.186033,115.031458 105.089891,115.031458 L86.6043703,115.031458 L79.2189421,96.8365963 C81.5440919,95.775607 83.7819033,94.531937 85.9026443,93.1139533 C87.3119033,94.3952751 89.1652869,95.1985125 91.2147171,95.1985125 L95.1790858,95.1985125 C99.5518074,95.1985125 103.107591,91.6404216 103.107591,87.2653806 L103.107591,83.2986985 C103.107591,81.2122799 101.486258,79.5165564 99.4386857,79.3617658 C102.941044,73.9413076 105.301965,67.8507875 106.372324,61.4822952 L107.071495,61.4822952 Z M87.2501161,19.832946 L99.1429899,19.832946 L99.1429899,23.7996281 C99.1429899,25.3724024 98.2152528,26.7229848 96.8854344,27.3635295 C96.8814856,27.3653888 96.8775368,27.3653888 96.873588,27.3674806 C96.8717297,27.3695724 96.8717297,27.3714317 96.8696392,27.3735235 C96.3562944,27.6175626 95.7874341,27.7663103 95.1788535,27.7663103 L91.2144848,27.7663103 C89.0282401,27.7663103 87.2501161,25.9873811 87.2501161,23.7996281 L87.2501161,19.832946 Z M91.2144848,31.73276 L95.1788535,31.73276 C95.8408592,31.73276 96.4752232,31.627707 97.0917014,31.4729164 C99.6823503,35.8698048 101.458384,40.6099748 102.372184,45.615799 L99.1432222,45.615799 C96.9569775,45.615799 95.1788535,47.3947282 95.1788535,49.5824811 L95.1788535,51.565706 L69.2087196,51.565706 C68.9529764,50.3022804 68.4496198,49.1283359 67.7597402,48.0889615 L86.0589705,29.7790523 C87.4503438,30.9792601 89.2382237,31.73276 91.2144848,31.73276 Z M68.8101225,10.9438778 C74.249254,12.1299081 79.4363587,14.3711172 84.0448473,17.5185251 C83.5712229,18.1709231 83.2857475,18.9662583 83.2857475,19.832946 L83.2857475,23.7996281 C83.2857475,24.7358088 83.4780775,25.6203927 83.7753994,26.455239 L64.956785,45.2848354 C63.9161585,44.5945532 62.7447569,44.0909029 61.4820682,43.833151 L61.4820682,15.8664962 C64.7904706,15.8664962 67.6229257,13.827491 68.8101225,10.9438778 Z M65.4464369,91.2318304 L61.4820682,91.2318304 L61.4820682,63.6779503 L74.0469358,94.6411736 C72.5226967,95.1806163 70.9824302,95.6666029 69.4108055,96.0333589 L69.4108055,95.3214618 L69.4108055,95.1985125 C69.4108055,93.010992 67.6329138,91.2318304 65.4464369,91.2318304 Z M53.5535631,95.1985125 L65.4464369,95.1985125 L65.4464369,99.1651947 C65.4464369,101.352715 63.6664546,103.131877 61.4820682,103.131877 L57.5176995,103.131877 C55.3314548,103.131877 53.5533309,101.352948 53.5533309,99.1651947 L53.5533309,95.1985125 L53.5535631,95.1985125 Z M49.5894267,95.1985125 L49.5894267,96.0314995 C47.9878376,95.6587006 46.408083,95.1924696 44.8580606,94.6393142 L57.4684556,63.2535546 C57.4842508,63.255414 57.5002783,63.2614569 57.5179318,63.265408 L57.5179318,91.2318304 L53.5535631,91.2318304 C51.3673185,91.2318304 49.5894267,93.010992 49.5894267,95.1985125 Z M59.5,59.4990703 C56.2215621,59.4990703 53.5535631,56.8295144 53.5535631,53.5491633 C53.5535631,50.2688122 56.2215621,47.5992563 59.5,47.5992563 C62.7784379,47.5992563 65.4464369,50.2688122 65.4464369,53.5491633 C65.4464369,56.8295144 62.7784379,59.4990703 59.5,59.4990703 Z M53.5535631,3.96668216 L65.4464369,3.96668216 L65.4464369,7.93336432 C65.4464369,8.04631959 65.422744,8.1534644 65.4127559,8.26456032 C65.4106653,8.27060319 65.4067165,8.27641365 65.4048583,8.28245652 C65.4027677,8.29826096 65.4088071,8.3101143 65.4067165,8.32405939 C65.2064888,10.3272722 63.5335889,11.9000465 61.4820682,11.9000465 L57.5176995,11.9000465 C55.4661788,11.9000465 53.7932789,10.3272722 53.5909606,8.32405939 C53.5909606,8.3101143 53.597,8.29826096 53.5930512,8.28245652 C53.5909606,8.27641365 53.5891024,8.27060319 53.5870118,8.26456032 C53.5770237,8.1534644 53.5533309,8.04631959 53.5533309,7.93336432 L53.5533309,3.96668216 L53.5535631,3.96668216 Z M50.191968,10.9478289 C51.3791649,13.8295827 54.2118523,15.8664962 57.5179318,15.8664962 L57.5179318,43.833151 C56.2552431,44.0909029 55.0838415,44.5947856 54.043215,45.2848354 L35.2246006,26.455239 C35.5219225,25.6201602 35.7142525,24.7358088 35.7142525,23.7996281 L35.7142525,19.832946 C35.7142525,18.9641666 35.4248283,18.166972 34.9512039,17.514574 C39.5615507,14.3669337 44.7528366,12.1338592 50.191968,10.9478289 Z M19.8572424,19.832946 L31.7501161,19.832946 L31.7501161,23.7996281 C31.7501161,25.9871486 29.9701339,27.7663103 27.7857475,27.7663103 L23.8213788,27.7663103 C23.2127981,27.7663103 22.6439378,27.6175626 22.1287348,27.3735235 C22.1266443,27.3714317 22.1266443,27.3695724 22.124786,27.3674806 C22.1229278,27.3653888 22.1187467,27.3653888 22.1147979,27.3635295 C20.7847472,26.7229848 19.8572424,25.37217 19.8572424,23.7996281 L19.8572424,19.832946 Z M21.9087631,31.4729164 C22.5252414,31.627707 23.1596054,31.73276 23.8216111,31.73276 L27.7859798,31.73276 C29.7622409,31.73276 31.5501207,30.9790277 32.9414941,29.7792847 L51.2407244,48.0891939 C50.5508448,49.1283359 50.0453977,50.3025129 49.791745,51.5659384 L23.8213788,51.5659384 L23.8213788,49.5827136 C23.8213788,47.395193 22.0413965,45.6160314 19.8570101,45.6160314 L16.6282807,45.6160314 C17.5420808,40.6102073 19.3181143,35.8700372 21.9087631,31.4729164 Z M11.9285051,57.5158455 C9.74226038,57.5158455 7.96413639,55.7369162 7.96413639,53.5491633 L7.96413639,49.5824811 L19.8570101,49.5824811 L19.8570101,53.5491633 C19.8570101,55.7366838 18.0770279,57.5158455 15.8926415,57.5158455 L11.9285051,57.5158455 Z M31.7501161,87.2653806 C31.7501161,89.4529011 29.9701339,91.2320628 27.7857475,91.2320628 L23.8213788,91.2320628 C21.6351341,91.2320628 19.8570101,89.4531335 19.8570101,87.2653806 L19.8570101,83.2986985 L31.7498839,83.2986985 L31.7498839,87.2653806 L31.7501161,87.2653806 Z M30.9294614,79.3320163 L24.3546999,79.3320163 C20.4558349,74.0147517 17.8096705,67.880537 16.6303713,61.4069917 C19.9801199,61.0936919 22.7136226,58.7116373 23.5400845,55.5323882 L49.7915127,55.5323882 C50.0451654,56.7958137 50.5506125,57.9697583 51.2404921,59.0091327 L30.9294614,79.3320163 Z M35.2624627,89.7919993 C35.5340012,88.9948048 35.7144848,88.1536831 35.7144848,87.2653806 L35.7144848,83.2986985 C35.7144848,82.4141146 35.4150724,81.6050667 34.9235623,80.9445341 L53.5914252,62.2657771 L41.1951949,93.1239473 C39.1334537,92.168011 37.149295,91.0572843 35.2624627,89.7919993 Z M82.3245617,115.031458 L36.6638242,115.031458 L43.379349,98.320122 C45.4369091,99.0638603 47.5478942,99.648857 49.6846626,100.099051 C50.15248,104.029941 53.4645989,107.098094 57.5181641,107.098094 L61.4825328,107.098094 C65.536098,107.098094 68.8482169,104.029941 69.3160342,100.099051 C71.4291098,99.6528082 73.5161698,99.0796648 75.5537536,98.3477797 L82.3245617,115.031458 Z M83.3828416,88.215274 C83.3846999,88.2826753 83.3610071,88.3442661 83.3709952,88.4135267 C83.3828416,88.4869709 83.4107156,88.5562315 83.422562,88.6296757 C83.4662311,88.8737149 83.5315026,89.1035765 83.5949157,89.3357623 C83.6385849,89.4984551 83.6583289,89.6690501 83.7138445,89.8275593 C81.8149335,91.0988871 79.7970937,92.1877666 77.7197896,93.1437028 L65.0380839,61.8948376 L84.07667,80.9445341 C83.5851599,81.6050667 83.2857475,82.4141146 83.2857475,83.2986985 L83.2857475,87.2653806 C83.2857475,87.5905337 83.3433536,87.8998824 83.3828416,88.215274 Z M99.1429899,87.2653806 C99.1429899,89.4529011 97.3650982,91.2320628 95.1786212,91.2320628 L91.2142525,91.2320628 C89.8189304,91.2320628 88.5957298,90.5022695 87.8881967,89.4094389 C87.7416263,89.183296 87.6266464,88.9452997 87.5293199,88.7033523 C87.4974972,88.6240977 87.4777532,88.5406595 87.4519698,88.4574538 C87.3985448,88.2868588 87.3488363,88.1144045 87.3172458,87.9359073 C87.2814743,87.7176665 87.2498839,87.4957071 87.2498839,87.265613 L87.2498839,83.2986985 L99.1427576,83.2986985 L99.1427576,87.2653806 L99.1429899,87.2653806 Z M94.6434419,79.3320163 L88.0705386,79.3320163 L67.7595079,59.0091327 C68.4493875,57.9699907 68.9527441,56.7958137 69.2084873,55.5323882 L95.4601478,55.5323882 C96.2866096,58.7116373 99.0180218,61.0934595 102.369861,61.4069917 C101.190562,67.880537 98.5443974,74.0149841 94.6434419,79.3320163 Z M99.1429899,53.5552062 C99.1429899,53.5533468 99.1450804,53.5512551 99.1450804,53.5491633 C99.1450804,53.5452122 99.1429899,53.5431204 99.1429899,53.5391693 L99.1429899,49.5824811 L111.035864,49.5824811 L111.035864,53.5491633 C111.035864,55.7366838 109.257972,57.5158455 107.071495,57.5158455 L103.107126,57.5158455 C100.922972,57.5158455 99.1469387,55.7406349 99.1429899,53.5552062 Z" id="Shape"></path>
                            <path d="M117.000059,115 L112.999941,115 C111.893915,115 111,115.896051 111,117 C111,118.103949 111.893915,119 112.999941,119 L117.000059,119 C118.106085,119 119,118.103949 119,117 C119,115.896051 118.106085,115 117.000059,115 Z" id="Shape"></path>
                            <path d="M59.0050266,52 L58.9830499,52 C57.8837454,52 57,52.8960506 57,54 C57,55.1039494 57.9017476,56 59.0050266,56 C60.1062014,56 61,55.1039494 61,54 C61,52.8960506 60.1064352,52 59.0050266,52 Z" id="Shape"></path>
                        </g>
                    </g>
                </g>
            </g>
        </g>
    </g>
</svg>