<?xml version="1.0" encoding="UTF-8"?>
<svg width="119px" height="119px" viewBox="0 0 119 119" version="1.1" xmlns="http://www.w3.org/2000/svg" xmlns:xlink="http://www.w3.org/1999/xlink">
    <!-- Generator: Sketch 47 (45396) - http://www.bohemiancoding.com/sketch -->
    <title>bar</title>
    <desc>Created with Sketch.</desc>
    <defs></defs>
    <g id="Page-1" stroke="none" stroke-width="1" fill="none" fill-rule="evenodd">
        <g id="Nav-Light-Copy-13" transform="translate(-1271.000000, -892.000000)" fill-rule="nonzero" fill="#2EC9A5">
            <g id="Group-3" transform="translate(391.000000, 825.000000)">
                <g id="Group-2" transform="translate(140.000000, 67.000000)">
                    <g id="Group-Copy-2" transform="translate(740.000000, 0.000000)">
                        <g id="bar">
                            <path d="M102.000075,111 C103.103983,111 104,110.121213 104,109.038532 L104,61.9614677 C104,60.8787872 103.103983,60 102.000075,60 L17.9999254,60 C16.8960172,60 16,60.8787872 16,61.9614677 L16,109.038532 C16,110.121213 16.8960172,111 17.9999254,111 C19.1038336,111 19.9998509,110.121213 19.9998509,109.038532 L19.9998509,63.9229355 L43.9998935,63.9229355 L43.9998935,109.038532 C43.9998935,110.121213 44.8959107,111 45.9998189,111 C47.1037271,111 47.9997443,110.121213 47.9997443,109.038532 L47.9997443,63.9229355 L99.9999148,63.9229355 L99.9999148,109.038532 C100.000149,110.121213 100.896166,111 102.000075,111 Z" id="Shape"></path>
                            <path d="M93.9996924,76 C94.5117355,76 95.0235443,75.8040764 95.4134939,75.414104 C96.195502,74.63205 96.195502,73.3681551 95.4134939,72.5863354 L91.4139333,68.5865405 C90.6321594,67.8044865 89.3681042,67.8044865 88.5863304,68.5865405 C87.8045565,69.3685945 87.8045565,70.6324894 88.5863304,71.414309 L92.585891,75.414104 C92.9758405,75.803842 93.4876493,76 93.9996924,76 Z" id="Shape"></path>
                            <path d="M117.016973,114.999922 L115.033713,114.999922 L115.033713,51.9999219 C115.033713,50.8960156 114.145162,50 113.050453,50 C111.955744,50 111.067193,50.8960156 111.067193,51.9999219 L111.067193,114.999922 L91.2338989,114.999922 L91.2338989,102.999922 L93.2171586,102.999922 C94.3118678,102.999922 95.2004184,102.103906 95.2004184,101 C95.2004184,99.8960938 94.3118678,99.0000781 93.2171586,99.0000781 L85.2838873,99.0000781 C84.1891781,99.0000781 83.3006275,99.8960938 83.3006275,101 C83.3006275,102.103906 84.1891781,102.999922 85.2838873,102.999922 L87.267147,102.999922 L87.267147,114.999922 L75.3671238,114.999922 L75.3671238,95 L85.2838873,95 C86.3785964,95 87.267147,94.1039844 87.267147,93.0000781 C87.267147,91.8961719 86.3785964,91.0001563 85.2838873,91.0001563 L61.4838408,91.0001563 C60.3891316,91.0001563 59.5005811,91.8961719 59.5005811,93.0000781 C59.5005811,94.1039844 60.3891316,95 61.4838408,95 L71.4001395,95 L71.4001395,114.999922 L59.5001162,114.999922 L59.5001162,102.999922 L61.4833759,102.999922 C62.5780851,102.999922 63.4666357,102.103906 63.4666357,101 C63.4666357,99.8960938 62.5780851,99.0000781 61.4833759,99.0000781 L53.5501046,99.0000781 C52.4553954,99.0000781 51.5668449,99.8960938 51.5668449,101 C51.5668449,102.103906 52.4553954,102.999922 53.5501046,102.999922 L55.5333643,102.999922 L55.5333643,114.999922 L7.93327135,114.999922 L7.93327135,51.9999219 C7.93327135,50.8960156 7.04472079,50 5.95001162,50 C4.85530245,50 3.96675189,50.8960156 3.96675189,51.9999219 L3.96675189,114.999922 L1.98325973,114.999922 C0.888550564,114.999922 0,115.895938 0,116.999844 C0,118.10375 0.888550564,119 1.98325973,119 L117.01674,119 C118.111449,119 119,118.103984 119,117.000078 C119,115.896172 118.111682,114.999922 117.016973,114.999922 Z" id="Shape"></path>
                            <path d="M109.08283,0 L9.9167054,0 C4.44853731,0 0,4.39248047 0,9.79174316 L0,44.8439209 C0,45.4334863 0.267748954,45.9895459 0.727942469,46.3615527 C1.18999535,46.7317236 1.79498713,46.8825 2.37813134,46.7629346 C5.54556428,46.1283887 8.2151515,44.2621582 9.91484604,41.7338428 C12.0468436,44.9063428 15.698177,46.9997705 19.8334108,46.9997705 C23.9686447,46.9997705 27.6160269,44.9081787 29.7501162,41.7395801 C31.8842055,44.9081787 35.5334471,46.9997705 39.6668216,46.9997705 C43.8001961,46.9997705 47.4494377,44.9081787 49.583527,41.7395801 C51.7171515,44.9084082 55.3666255,47 59.4997676,47 C63.6331421,47 67.2823837,44.9084082 69.416473,41.7398096 C71.5505623,44.9084082 75.1998039,47 79.3331784,47 C83.4684122,47 87.1157945,44.9084082 89.2498838,41.7398096 C91.3839731,44.9084082 95.0332147,47 99.1665892,47 C103.301823,47 106.953156,44.9065723 109.085154,41.7340723 C110.784848,44.2623877 113.454436,46.1286182 116.621869,46.7631641 C117.205013,46.8866309 117.810005,46.7337891 118.272058,46.3617822 C118.732251,45.9897754 119,45.4334863 119,44.8441504 L119,9.79174316 C118.999535,4.39248047 114.550998,0 109.08283,0 Z M115.032807,42.0335596 C112.638871,40.6628027 111.066078,38.099375 111.066078,35.25 L111.066078,9.79174316 C111.066078,8.71083496 110.177533,7.83348633 109.08283,7.83348633 C107.988127,7.83348633 107.099582,8.71083496 107.099582,9.79174316 L107.099582,35.25 C107.099582,39.5701904 103.541449,43.0832568 99.1663568,43.0832568 C94.7912645,43.0832568 91.2331319,39.5699609 91.2331319,35.25 L91.2331319,9.79174316 C91.2331319,8.71083496 90.3445865,7.83348633 89.2498838,7.83348633 C88.155181,7.83348633 87.2666357,8.71083496 87.2666357,9.79174316 L87.2666357,35.25 C87.2666357,39.5701904 83.7085031,43.0832568 79.3334108,43.0832568 C74.9580861,43.0832568 71.4001859,39.5699609 71.4001859,35.25 L71.4001859,9.79174316 C71.4001859,8.71083496 70.5116406,7.83348633 69.4169378,7.83348633 C68.3222351,7.83348633 67.4336897,8.71083496 67.4336897,9.79174316 L67.4336897,35.25 C67.4336897,39.5701904 63.8755571,43.0832568 59.5004648,43.0832568 C55.1251401,43.0832568 51.56724,39.5699609 51.56724,35.25 L51.56724,9.79174316 C51.56724,8.71083496 50.6786946,7.83348633 49.5839919,7.83348633 C48.4892891,7.83348633 47.6007437,8.71083496 47.6007437,9.79174316 L47.6007437,35.25 C47.6007437,39.5701904 44.0426112,43.0832568 39.6675189,43.0832568 C35.2924266,43.0832568 31.734294,39.5699609 31.734294,35.25 L31.734294,9.79174316 C31.734294,8.71083496 30.8457486,7.83348633 29.7510459,7.83348633 C28.6563431,7.83348633 27.7677978,8.71083496 27.7677978,9.79174316 L27.7677978,35.25 C27.7677978,39.5701904 24.2096652,43.0832568 19.8345729,43.0832568 C15.4592482,43.0832568 11.901348,39.5699609 11.901348,35.25 L11.901348,9.79174316 C11.901348,8.71083496 11.0128027,7.83348633 9.91809993,7.83348633 C8.82339717,7.83348633 7.93485182,8.71083496 7.93485182,9.79174316 L7.93485182,35.25 C7.93485182,38.099375 6.36205913,40.6628027 3.96812317,42.0335596 L3.96812317,9.79174316 C3.96812317,6.55269043 6.6377104,3.91674316 9.91809993,3.91674316 L109.084457,3.91674316 C112.364846,3.91674316 115.034433,6.55269043 115.034433,9.79174316 L115.034433,42.0335596 L115.032807,42.0335596 Z" id="Shape"></path>
                            <path d="M35,85.9999414 L35,90.0000586 C35,91.1039756 35.8960506,92 37,92 C38.1039494,92 39,91.1039756 39,90.0000586 L39,85.9999414 C39,84.8960244 38.1039494,84 37,84 C35.8960506,84 35,84.8960244 35,85.9999414 Z" id="Shape"></path>
                            <path d="M80.5865305,72.5863948 C79.8044898,73.3684889 79.8044898,74.6324486 80.5865305,75.4143083 L88.5857493,83.4140739 C88.975715,83.8040663 89.4877794,84 89.9996094,84 C90.5116738,84 91.0235038,83.8040663 91.4134695,83.4140739 C92.1955102,82.6319798 92.1955102,81.3680202 91.4134695,80.5861604 L83.4142507,72.5863948 C82.6322101,71.8045351 81.3683368,71.8045351 80.5865305,72.5863948 Z" id="Shape"></path>
                        </g>
                    </g>
                </g>
            </g>
        </g>
    </g>
</svg>